<svg id="Actual_thing" data-name="Actual thing" xmlns="http://www.w3.org/2000/svg" viewBox="0 0 1207.46 1180.22"><defs><style>.cls-1,.cls-2,.cls-3{fill:none;stroke-miterlimit:10;}.cls-1,.cls-2{stroke:#8c8680;}.cls-1{stroke-width:37px;}.cls-2{stroke-width:45px;}.cls-3{stroke:#3f3f3a;stroke-width:26px;}.cls-4{fill:#1d1d1b;}.cls-5{fill:#057dab;}</style></defs><path class="cls-1" d="M871.79,888c-18.51,220.38,7.73,191.72-18.51,220.38s-98.46,52.66-117.9,37.27-61.48-47.34-69.27-106.51l-7.8-59.17" transform="translate(14.37 -2.49)"/><path class="cls-2" d="M1036.79,317.49c61.26,59.35,41.84-8.39,61.26,59.35s78.21,161.6,72.1,251.42S1106,785.72,1106,785.72l-74.49-11.07c-30.29-21-33.42-15.51-33.42-15.51l17-31.7" transform="translate(14.37 -2.49)"/><path class="cls-1" d="M320.06,929.87c43.9,206.31,16.32,182.48,43.9,206.31s96.76,37.44,112.72,20.42S527.31,1104,527.23,1047l-.07-57" transform="translate(14.37 -2.49)"/><line class="cls-1" x1="918.59" y1="235.32" x2="918.59" y2="290.23"/><line class="cls-1" x1="834.72" y1="217.34" x2="961.52" y2="217.34"/><line class="cls-1" x1="766.43" y1="108.07" x2="766.43" y2="65.17"/><line class="cls-1" x1="818.5" y1="125.02" x2="649.99" y2="125.02"/><line class="cls-1" x1="843.01" y1="209.28" x2="843.01" y2="114.3"/><line class="cls-1" x1="665.69" y1="235.32" x2="732.33" y2="235.32"/><line class="cls-1" x1="744.99" y1="335.46" x2="739.21" y2="222.3"/><line class="cls-1" x1="665.69" y1="341.58" x2="787.74" y2="341.58"/><line class="cls-1" x1="1017.46" y1="503.12" x2="1045.89" y2="503.12"/><line class="cls-1" x1="743.95" y1="549.12" x2="743.95" y2="380.27"/><line class="cls-3" x1="648.84" y1="849.62" x2="648.84" y2="671.92"/><path class="cls-4" d="M563.4,1008.72A503.25,503.25,0,0,1,367.55,42,503.25,503.25,0,0,1,759.24,969.18,500,500,0,0,1,563.4,1008.72Zm0-971.23c-258.12,0-468.12,210-468.12,468.11s210,468.12,468.12,468.12,468.11-210,468.11-468.12S821.52,37.49,563.4,37.49Z" transform="translate(14.37 -2.49)"/><path class="cls-4" d="M871.79,586.61c-81,0-146.95-65.92-146.95-146.95s65.92-147,146.95-147,146.94,65.92,146.94,147S952.81,586.61,871.79,586.61Zm0-258.9a112,112,0,1,0,111.94,112A112.08,112.08,0,0,0,871.79,327.71Z" transform="translate(14.37 -2.49)"/><path class="cls-4" d="M223.75,473.89a124,124,0,0,1,8-27.14l-2.27,5.37a133.65,133.65,0,0,1,17.2-29.33l-3.52,4.55a137.65,137.65,0,0,1,24.64-24.61l-4.55,3.52a131.6,131.6,0,0,1,29-17l-5.37,2.27a121.47,121.47,0,0,1,30.75-8.38l-6,.8a127.67,127.67,0,0,1,33.71.12l-6-.81a137,137,0,0,1,34.45,9.47l-5.38-2.27a135.94,135.94,0,0,1,29.86,17.39l-4.55-3.52a127.16,127.16,0,0,1,22.53,22.42l-3.52-4.55a149.24,149.24,0,0,1,18.83,33l-2.27-5.37c7.75,18.38,12.74,37.75,17.66,57a21.66,21.66,0,0,0,18.71,16.12,17.11,17.11,0,0,0,9-.4c5.44-1.77,10.69-5.14,13.44-10.34A23.73,23.73,0,0,0,490.36,495c-3.77-14.8-7.57-29.61-12.64-44-5.54-15.76-12.28-31.44-21.68-45.32a142.69,142.69,0,0,0-29.26-32.13,172.6,172.6,0,0,0-19.63-13.83,177.24,177.24,0,0,0-22.1-10.61A137.1,137.1,0,0,0,367,343a176.46,176.46,0,0,0-24-4.19c-14.54-1.71-29.15-.71-43.53,2a142.75,142.75,0,0,0-40,14.41,133.47,133.47,0,0,0-15.92,9.92,179.12,179.12,0,0,0-18.39,15.06A136.35,136.35,0,0,0,212.5,394a176.68,176.68,0,0,0-14,19.69,171.31,171.31,0,0,0-10.36,21.44,126.08,126.08,0,0,0-5.92,17.78c-.75,3-1.37,6-1.89,9a17,17,0,0,0-.4,9,16.62,16.62,0,0,0,2.67,8.36,17,17,0,0,0,5.79,6.32,17,17,0,0,0,7.66,4c5.76,1.31,12.22,1,17.33-2.27l4.56-3.51a22.49,22.49,0,0,0,5.78-9.93Z" transform="translate(14.37 -2.49)"/><path class="cls-4" d="M351.61,628c3.29,18.06,9.37,35.28,17,51.94s17.66,31.68,29.05,46,24.67,26.27,39.21,37.18c15.28,11.47,32.28,20,50.09,26.84,18.17,6.95,37.28,10.73,56.62,12.49A205.9,205.9,0,0,0,601,799c20.9-4,40.7-12,60.12-20.51,17-7.43,33.77-15.37,50.41-23.5,33.16-16.18,65.58-34.89,92.35-60.61q4.71-4.53,9.12-9.35a26.23,26.23,0,0,0,7.32-17.67c0-6.14-2.73-13.46-7.32-17.68-4.77-4.38-11-7.62-17.68-7.32-6.46.28-13.18,2.41-17.68,7.32a219.18,219.18,0,0,1-27.46,25.11l5.06-3.91c-28.66,22.05-61.51,37.66-94.12,52.89-10.28,4.8-20.57,9.61-31,14l6-2.52c-18.64,7.85-37.85,14.31-58,17.08l6.65-.9a185.93,185.93,0,0,1-49.15,0l6.65.89a190.07,190.07,0,0,1-47.53-12.91l6,2.52a184,184,0,0,1-40.67-23.67l5.06,3.91A192.38,192.38,0,0,1,431,687.94l3.91,5.06a199.64,199.64,0,0,1-25.5-43.71l2.52,6a195.12,195.12,0,0,1-12.11-40.6c-1.07-5.85-6.53-12-11.49-14.94-5.36-3.14-13.26-4.47-19.26-2.52s-11.89,5.7-14.95,11.48l-2.52,6a25.18,25.18,0,0,0,0,13.29Z" transform="translate(14.37 -2.49)"/><rect class="cls-3" x="559.99" y="860.34" width="3.06" height="110.65"/><rect class="cls-3" x="573.82" y="860.34" width="84.17"/><line class="cls-3" x1="665.69" y1="671.92" x2="541.61" y2="671.92"/><line class="cls-3" x1="552.33" y1="682.64" x2="552.33" y2="520.98"/><line class="cls-3" x1="559.99" y1="538.64" x2="723.9" y2="538.64"/><line class="cls-3" x1="723.9" y1="549.12" x2="723.9" y2="390.04"/><line class="cls-3" x1="739.21" y1="390.04" x2="518.63" y2="390.04"/><line class="cls-3" x1="518.63" y1="403.83" x2="518.63" y2="226.13"/><line class="cls-3" x1="526.29" y1="241.45" x2="665.69" y2="241.45"/><line class="cls-3" x1="641.99" y1="209.28" x2="641.99" y2="125.02"/><line class="cls-3" x1="609.01" y1="125.02" x2="512.5" y2="125.02"/><line class="cls-3" x1="526.29" y1="114.3" x2="526.29" y2="35"/><line class="cls-3" x1="609.01" y1="125.02" x2="658.03" y2="125.02"/><line class="cls-3" x1="641.99" y1="209.28" x2="641.99" y2="235.32"/><path class="cls-5" d="M216.26,351.17h0Z" transform="translate(14.37 -2.49)"/><line class="cls-1" x1="714.71" y1="950.79" x2="714.71" y2="849.62"/><line class="cls-1" x1="702.46" y1="849.62" x2="864.84" y2="849.62"/><line class="cls-1" x1="783.65" y1="832.74" x2="783.65" y2="766.9"/><line class="cls-1" x1="766.43" y1="779.15" x2="886.16" y2="779.15"/><line class="cls-1" x1="864.84" y1="766.9" x2="864.84" y2="697.2"/><line class="cls-1" x1="886.16" y1="713.28" x2="994.88" y2="715.49"/><line class="cls-1" x1="969.01" y1="682.64" x2="969.01" y2="622.9"/><line class="cls-1" x1="955.22" y1="622.9" x2="1033.11" y2="622.9"/><line class="cls-1" x1="969.01" y1="682.64" x2="969.01" y2="714.39"/><line class="cls-1" x1="886.16" y1="713.28" x2="875.56" y2="714.39"/><line class="cls-1" x1="955.22" y1="633" x2="702.46" y2="633"/><line class="cls-1" x1="723.9" y1="633" x2="723.9" y2="549.12"/><line class="cls-1" x1="709.21" y1="592.84" x2="566.52" y2="593.8"/><line class="cls-1" x1="709.69" y1="640.88" x2="566.05" y2="640.88"/><line class="cls-1" x1="886.16" y1="618.7" x2="886.16" y2="575.81"/><line class="cls-1" x1="676.93" y1="565.74" x2="787.74" y2="565.74"/><line class="cls-1" x1="665.69" y1="373.6" x2="665.69" y2="329.68"/><line class="cls-1" x1="683.69" y1="342.24" x2="529.9" y2="340.92"/><line class="cls-1" x1="955.22" y1="570.7" x2="1045.89" y2="570.7"/><line class="cls-1" x1="749.05" y1="235.32" x2="853.22" y2="235.32"/><line class="cls-1" x1="838.93" y1="192.43" x2="838.93" y2="226.13"/><path class="cls-1" d="M60.28,406.32c-42.54,73.94-42.54,3.47-42.54,73.94s-30.63,176.89,0,261.55S122.81,875.49,122.81,875.49l68.55-31.18" transform="translate(14.37 -2.49)"/><path class="cls-5" d="M991.52,763.26" transform="translate(14.37 -2.49)"/></svg>